<?xml version="1.0" encoding="utf-8"?>
<!-- Generator: Adobe Illustrator 18.0.0, SVG Export Plug-In . SVG Version: 6.00 Build 0)  -->
<!DOCTYPE svg PUBLIC "-//W3C//DTD SVG 1.1//EN" "http://www.w3.org/Graphics/SVG/1.1/DTD/svg11.dtd">
<svg version="1.1" id="Ebene_1" xmlns="http://www.w3.org/2000/svg" xmlns:xlink="http://www.w3.org/1999/xlink" x="0px" y="0px"
	 viewBox="0 0 141.7 141.7" enable-background="new 0 0 141.7 141.7" xml:space="preserve">
<g id="table">
	<path fill="#474B56" d="M50.5,106.4H12.3V34h102.2v35.7h9.8V13.2c0-2.7-2.2-4.9-4.9-4.9H7.4c-2.7,0-4.9,2.2-4.9,4.9v98.1
		c0,2.7,2.2,4.9,4.9,4.9h43c0,0,0,0,0,0 M12.3,18.1h102.2v10H12.3V18.1z"/>
</g>
<g id="lines">
	<rect x="27" y="18.1" fill="#474B56" width="3.8" height="88.3"/>
	<rect x="46.6" y="18.1" fill="#474B56" width="3.8" height="88.3"/>
	<rect x="12.3" y="42" fill="#474B56" width="102.1" height="3.8"/>
	<rect x="12.3" y="54.8" fill="#474B56" width="102.1" height="3.8"/>
	<rect x="12.4" y="67.5" fill="#474B56" width="66.1" height="3.8"/>
	<rect x="12.4" y="80.3" fill="#474B56" width="36.8" height="3.8"/>
	<rect x="12.4" y="93" fill="#474B56" width="36.8" height="3.8"/>
	<rect x="74.7" y="18.1" fill="#474B56" width="3.8" height="51.3"/>
	<rect x="94.5" y="18.1" fill="#474B56" width="3.8" height="37.8"/>
</g>
<rect x="10" y="15.7" opacity="0.65" fill="#474B56" width="106.2" height="13.7"/>
<path fill="#474B56" d="M127.9,73.1h-15.3c0.1-1.8-0.2-3.7-1.3-5.5c-2.3-3.9-7.3-5.9-15-6c-7.6-0.1-12.6,1.9-14.9,5.7
	c-1.1,1.9-1.4,3.9-1.3,5.8H65c-6.3,0-11.3,5.1-11.3,11.3v40.7c0,6.3,5.1,11.3,11.3,11.3h62.9c6.3,0,11.3-5.1,11.3-11.3V84.5
	C139.2,78.2,134.1,73.1,127.9,73.1z M85.6,69.8c1.4-2.3,5.1-3.4,10.8-3.4c5.8,0,9.5,1.3,10.9,3.6c0.6,1,0.7,2.1,0.6,3.2H85
	C84.9,72,85,70.8,85.6,69.8z M111.2,109.2h-10.9v10.9c0,2.1-1.7,3.9-3.9,3.9c-2.1,0-3.9-1.7-3.9-3.9v-10.9H81.6
	c-2.1,0-3.9-1.7-3.9-3.9c0-2.1,1.7-3.9,3.9-3.9h10.9V90.6c0-2.1,1.7-3.9,3.9-3.9c2.1,0,3.9,1.7,3.9,3.9v10.9h10.9
	c2.1,0,3.9,1.7,3.9,3.9C115,107.5,113.3,109.2,111.2,109.2z"/>
</svg>
